<?xml version="1.0" standalone="no"?>
<!DOCTYPE svg PUBLIC "-//W3C//DTD SVG 20010904//EN"
 "http://www.w3.org/TR/2001/REC-SVG-20010904/DTD/svg10.dtd">
<svg version="1.0" xmlns="http://www.w3.org/2000/svg"
 width="250.000000pt" height="250.000000pt" viewBox="0 0 250.000000 250.000000"
 preserveAspectRatio="xMidYMid meet">
<metadata>
Created by potrace 1.11, written by Peter Selinger 2001-2013
</metadata>
<g transform="translate(0.000000,250.000000) scale(0.100000,-0.100000)"
fill="#000000" stroke="none">
<path d="M1830 1610 c-25 -3 -55 -12 -67 -20 -45 -29 -48 -47 -48 -336 0 -260
1 -274 21 -301 11 -15 30 -32 42 -38 12 -5 22 -13 22 -17 0 -12 538 -10 545 2
4 6 18 15 30 20 52 20 58 54 59 320 1 135 -3 262 -8 283 -6 25 -20 47 -41 63
-32 24 -35 24 -271 27 -131 1 -259 0 -284 -3z"/>
<path d="M162 1597 c-12 -5 -32 -26 -44 -44 -20 -33 -21 -49 -22 -286 -1 -222
1 -256 17 -290 20 -42 87 -92 99 -73 5 7 8 8 8 0 0 -6 7 -11 15 -11 8 0 15 5
15 11 0 6 4 5 9 -3 6 -9 10 -10 16 -2 5 9 10 9 21 0 8 -6 14 -7 14 -2 0 5 9 9
20 9 11 0 20 -4 20 -9 0 -5 8 -3 17 4 14 12 15 12 9 1 -7 -11 -4 -12 13 -3 16
9 21 9 21 0 0 -8 4 -8 15 1 12 10 15 10 15 0 0 -9 3 -10 13 -1 8 6 17 8 20 5
10 -10 50 -11 69 -2 10 5 20 4 24 -3 4 -8 9 -7 15 2 7 12 9 12 9 0 0 -11 3
-11 15 -1 8 7 15 8 15 3 0 -5 9 -9 20 -9 11 0 20 4 20 9 0 5 7 4 15 -3 12 -10
15 -10 15 0 0 10 3 10 15 0 8 -7 15 -8 15 -3 0 5 13 17 30 26 16 10 35 28 42
40 15 28 18 552 4 583 -6 12 -25 31 -43 43 -33 21 -42 22 -301 20 -164 -1
-276 -5 -290 -12z"/>
<path d="M957 1592 c-25 -15 -44 -46 -39 -64 1 -5 -2 -8 -7 -8 -4 0 -8 -120
-7 -267 1 -301 2 -305 76 -343 33 -17 61 -19 293 -18 141 0 257 4 257 7 0 3
14 12 31 20 56 25 62 55 62 341 0 215 -2 260 -16 286 -33 63 -37 64 -344 64
-245 -1 -281 -3 -306 -18z"/>
</g>
</svg>
