<?xml version="1.0" encoding="utf-8"?>
<!-- Generator: Adobe Illustrator 16.0.0, SVG Export Plug-In . SVG Version: 6.00 Build 0)  -->
<!DOCTYPE svg PUBLIC "-//W3C//DTD SVG 1.1//EN" "http://www.w3.org/Graphics/SVG/1.1/DTD/svg11.dtd">
<svg version="1.1" id="Capa_1" xmlns="http://www.w3.org/2000/svg" xmlns:xlink="http://www.w3.org/1999/xlink" x="0px" y="0px"
	 width="595.279px" height="510.236px" viewBox="0 0 595.279 510.236" enable-background="new 0 0 595.279 510.236"
	 xml:space="preserve">
<path fill="none" stroke="#969696" stroke-width="4.3" stroke-miterlimit="10" d="M128.27,65.75l126.06-6.582l3.818,4.053v261.254
	c12.464-11.141,26.488-24.052,42.091-38.738c15.604-14.687,28.104-26.828,37.557-36.442c5.577-5.736,8.645-10.076,9.235-13.026
	c0.592-2.959,0.896-4.771,0.896-5.452c0-3.031-2.672-5.568-7.998-7.596c-5.345-2.018-13.36-3.793-24.065-5.309v-17.979h128.621
	V217.4c-16.854,4.726-29.718,9.155-38.56,13.289c-8.841,4.143-18.489,9.667-28.945,16.589c-6.901,4.556-13.594,9.333-20.065,14.323
	c-6.491,4.98-13.937,11.209-22.349,18.67c16.521,23.959,31.765,46.125,45.732,66.535c13.987,20.404,28.657,42,43.991,64.773
	c5.22,7.927,11.712,13.234,19.458,15.941c7.747,2.709,15.514,4.395,23.262,5.075v18.474l0,0H347.677
	c-14.67-25.754-28.064-47.599-40.208-65.531c-12.158-17.934-23.618-34.541-34.416-49.875l-14.902,12.609v55.198
	c0,6.08,0.879,11.049,2.653,14.938c1.774,3.894,5.184,6.765,10.259,8.606c3.029,1.347,6.582,2.528,10.616,3.533
	c4.054,1.021,8.104,1.687,12.158,2.045v18.474H136.61v-18.474c4.25-0.358,8.501-0.81,12.751-1.397
	c4.25-0.593,7.979-1.396,11.209-2.404c5.436-1.86,9.146-4.729,11.103-8.604c1.955-3.872,2.924-8.948,2.924-15.206V122.716
	c0-5.576-1.221-11.352-3.678-17.342c-2.438-5.99-6.023-10.509-10.762-13.549c-3.21-2.025-8.017-3.712-14.419-5.066
	c-6.42-1.345-12.249-2.188-17.468-2.529V65.75"/>
</svg>
