<?xml version="1.0" encoding="utf-8"?>
<!-- Generator: Adobe Illustrator 16.0.0, SVG Export Plug-In . SVG Version: 6.00 Build 0)  -->
<!DOCTYPE svg PUBLIC "-//W3C//DTD SVG 1.1//EN" "http://www.w3.org/Graphics/SVG/1.1/DTD/svg11.dtd">
<svg version="1.1" id="Capa_1" xmlns="http://www.w3.org/2000/svg" xmlns:xlink="http://www.w3.org/1999/xlink" x="0px" y="0px"
	 width="595.275px" height="510.236px" viewBox="0 0 595.275 510.236" enable-background="new 0 0 595.275 510.236"
	 xml:space="preserve">
<path fill="none" stroke="#969696" stroke-width="4.3" stroke-miterlimit="10" d="M53.989,75.491h165.54l88.55,236.693l74.648-192.093
	c2.512-7.093,4.969-15.54,7.313-25.341c2.367-9.801,3.643-16.221,3.805-19.261h159.146v19.747
	c-5.416,0.34-11.049,1.013-16.967,2.025c-5.92,1.014-11.551,2.367-16.967,4.053c-6.582,2.197-10.922,5.658-13.039,10.375
	c-2.098,4.734-3.154,9.963-3.154,15.701V381.84c0,6.062,1.061,11.173,3.154,15.313c2.117,4.125,6.457,7.712,13.039,10.761
	c3.371,1.508,8.896,2.938,16.59,4.305c7.678,1.348,13.631,2.26,17.846,2.779v19.747h0.001H358.802v-19.744
	c5.736-0.521,12.787-1.347,21.146-2.527c8.355-1.184,14.043-2.438,17.092-3.803c6.24-2.529,10.727-5.99,13.414-10.385
	c2.689-4.396,4.055-9.953,4.055-16.695V113.215L290.958,428.934h-31.902c-1.518-5.596-5.271-16.643-11.265-33.178
	c-5.999-16.534-10.851-29.789-14.563-39.741l-90.893-246.854v218.48c0,20.946,1.398,36.836,4.183,47.739
	c2.788,10.865,7.299,18.865,13.549,23.924c4.214,3.553,11.771,6.922,22.66,10.115c10.886,3.211,18.518,5.057,22.91,5.576v19.744
	H51.198v-19.744c4.215-0.521,11.102-1.648,20.634-3.427c9.531-1.76,17.342-4.846,23.422-9.233
	c6.752-4.719,11.312-12.696,13.677-23.926c2.356-11.229,3.543-27.207,3.543-47.978V152.453c0-10.795-1.354-19.789-4.056-26.963
	c-2.697-7.174-6.752-12.869-12.146-17.092c-6.752-5.228-13.676-8.607-20.762-10.123c-7.093-1.516-14.267-2.529-21.521-3.041V75.491"
	/>
</svg>
