<?xml version="1.0" encoding="utf-8"?>
<!-- Generator: Adobe Illustrator 16.0.0, SVG Export Plug-In . SVG Version: 6.00 Build 0)  -->
<!DOCTYPE svg PUBLIC "-//W3C//DTD SVG 1.1//EN" "http://www.w3.org/Graphics/SVG/1.1/DTD/svg11.dtd">
<svg version="1.1" id="Capa_1" xmlns="http://www.w3.org/2000/svg" xmlns:xlink="http://www.w3.org/1999/xlink" x="0px" y="0px"
	 width="595.279px" height="510.236px" viewBox="0 0 595.279 510.236" enable-background="new 0 0 595.279 510.236"
	 xml:space="preserve">
<path fill="none" stroke="#969696" stroke-width="4.3" stroke-miterlimit="10" d="M242.69,88.276h82.029v76.714h71.162v27.59h-70.66v138.56c0,19.728,2.766,33.715,8.271,41.982
	c5.506,8.25,15.37,12.375,29.605,12.375c4.56,0,10.903-0.322,19.047-1.008c8.123-0.682,13.813-1.434,17.021-2.275l-0.003,21.252l0,0
	c-10.813,4.732-22.363,9.004-34.688,12.808c-12.317,3.801-27.351,5.688-45.064,5.688c-26.327,0-45.875-6.402-58.607-19.207
	c-12.752-12.821-19.117-31.114-19.117-54.883V192.58h-45.57v-27.59h46.575V88.276"/>
</svg>
